# xmcd CD database file
#
# Track frame offsets:
#	150
#	20545
#	35532
#	56333
#	69561
#	90767
#	104232
#	118660
#	156886
#	172950
#	196097
#	222095
#	247696
#	267744
#	286164
#	303990
#	320465
#
# Disc length: 4518 seconds
#
# Revision: 3
# Processed by: cddbd v1.5.2PL0 Copyright (c) Steve Scherf et al.
# Submitted via: CDex 1.51
#
DISCID=e511a411
DTITLE=Steve Earle - Live At The BBC
DYEAR=2009
DGENRE=Country
TTITLE0=Copperhead Road
TTITLE1=San Antonio Girl
TTITLE2=Even When I'm Blue
TTITLE3=My Old Friend The Blues
TTITLE4=Someday
TTITLE5=The Devil's Right Hand
TTITLE6=Down The Road
TTITLE7=Snake Oil
TTITLE8=Johnny Come Lately
TTITLE9=When Will We Be Married
TTITLE10=Little Rock 'n' Roller
TTITLE11=Dead Flowers
TTITLE12=My Baby Worships Me
TTITLE13=Fearless Heart
TTITLE14=Good Ole Boy (Getting Tough)
TTITLE15=Hillbilly Highway
TTITLE16=I Love You Too Much
EXTD=YEAR: 2009
EXTT0=
EXTT1=
EXTT2=
EXTT3=
EXTT4=
EXTT5=
EXTT6=
EXTT7=
EXTT8=
EXTT9=
EXTT10=
EXTT11=
EXTT12=
EXTT13=
EXTT14=
EXTT15=
EXTT16=
PLAYORDER=
